# xmcd
#
# Track frame offsets: 
#        150
#        19147
#        36440
#        49980
#        67954
#        87173
#        106629
#        124077
#        141409
#        158265
#
# Disc length: 2320 seconds
#
# Revision: 0
# Processed by: cddbd v1.5.2PL0 Copyright (c) Steve Scherf et al.
# Submitted via: ExactAudioCopy v0.99pb4
#
DISCID=7c090e0a
DTITLE=Fonograf - Country and Eastern
DYEAR=1980
DGENRE=Country
TTITLE0=Silver Dancer
TTITLE1=Bluebirds
TTITLE2=Greyhound
TTITLE3=Brand New Day
TTITLE4=Always Find A Reason
TTITLE5=Come Back Tomorrow
TTITLE6=Heaven Is In Your Eyes
TTITLE7=Under The Moonlight
TTITLE8=Lonesome Once Again
TTITLE9=Blow Me Back Santa Ana
EXTD=
EXTT0=
EXTT1=
EXTT2=
EXTT3=
EXTT4=
EXTT5=
EXTT6=
EXTT7=
EXTT8=
EXTT9=
PLAYORDER=
